<?xml version="1.0" encoding="UTF-8" standalone="no"?>
<!-- Generator: Adobe Illustrator 16.0.0, SVG Export Plug-In . SVG Version: 6.00 Build 0)  -->

<svg
   xmlns:dc="http://purl.org/dc/elements/1.1/"
   xmlns:cc="http://creativecommons.org/ns#"
   xmlns:rdf="http://www.w3.org/1999/02/22-rdf-syntax-ns#"
   xmlns:svg="http://www.w3.org/2000/svg"
   xmlns="http://www.w3.org/2000/svg"
   xmlns:sodipodi="http://sodipodi.sourceforge.net/DTD/sodipodi-0.dtd"
   xmlns:inkscape="http://www.inkscape.org/namespaces/inkscape"
   version="1.1"
   id="Layer_1"
   x="0px"
   y="0px"
   width="1000"
   height="308.98401"
   viewBox="0 0 999.99997 308.98401"
   enable-background="new 0 0 224.557 310.973"
   xml:space="preserve"
   sodipodi:docname="MLG 2017.svg"
   inkscape:version="0.92.2 (5c3e80d, 2017-08-06)"><metadata
     id="metadata30993"><rdf:RDF><cc:Work
         rdf:about=""><dc:format>image/svg+xml</dc:format><dc:type
           rdf:resource="http://purl.org/dc/dcmitype/StillImage" /><dc:title></dc:title></cc:Work></rdf:RDF></metadata><defs
     id="defs30991"><clipPath
       id="clip259"><path
         inkscape:connector-curvature="0"
         d="m 2173,331 h 2.6641 v 5 H 2173 Z m 0,0"
         id="path26534" /></clipPath></defs><sodipodi:namedview
     pagecolor="#ffffff"
     bordercolor="#666666"
     borderopacity="1"
     objecttolerance="10"
     gridtolerance="10"
     guidetolerance="10"
     inkscape:pageopacity="0"
     inkscape:pageshadow="2"
     inkscape:window-width="1360"
     inkscape:window-height="706"
     id="namedview30989"
     showgrid="false"
     inkscape:zoom="0.18972709"
     inkscape:cx="2294.638"
     inkscape:cy="883.47796"
     inkscape:window-x="-8"
     inkscape:window-y="-8"
     inkscape:window-maximized="1"
     inkscape:current-layer="Layer_1" /><g
     id="g47957"
     transform="matrix(12.5,0,0,12.5,0,-12.266009)"
     style="fill:#000000"><path
       id="path47955"
       d="m 40.1,1 h -6.2 v 18.5 c 0,3.4 2.8,6.2 6.2,6.2 H 52.4 V 19.5 H 40.1 Z M 21.6,1 C 19.3,1 17.1,1.8 15.4,3.3 11.6,-0.1 5.8,0.3 2.4,4.1 0.8,5.8 0,8 0,10.3 V 25.7 H 6.2 V 10.3 c 0,-1.7 1.4,-3.1 3.1,-3.1 1.7,0 3.1,1.4 3.1,3.1 v 15.4 h 6.2 V 10.3 c 0,-1.7 1.4,-3.1 3.1,-3.1 1.7,0 3.1,1.4 3.1,3.1 V 25.7 H 31 V 10.3 C 30.8,5.1 26.7,1 21.6,1 Z m 43.1,9.3 v 6.2 h 4.9 l -1,1 v 0 l -0.9,0.9 c -0.8,0.8 -1.9,1.2 -3,1.1 -3.4,0 -6.2,-2.8 -6.2,-6.2 0,-3.4 2.8,-6.2 6.2,-6.2 h 6.2 V 1 h -6.2 c -6.8,0 -12.3,5.5 -12.3,12.3 0,6.8 5.5,12.3 12.3,12.3 1,0 2.1,-0.2 3.1,-0.5 1.4,-0.4 2.7,-1.2 3.8,-2.2 0.5,-0.4 0.9,-0.9 1.4,-1.4 l 0.9,-0.9 v 4.9 H 80 V 10.3 Z"
       inkscape:connector-curvature="0" /></g></svg>